<svg width="5" height="4" viewBox="0 0 5 4" fill="none" xmlns="http://www.w3.org/2000/svg">
<path d="M2.36346 1.13632C2.49831 1.13632 2.63013 1.17631 2.74226 1.25123C2.85438 1.32615 2.94177 1.43263 2.99338 1.55722C3.04498 1.68181 3.05848 1.8189 3.03218 1.95116C3.00587 2.08342 2.94093 2.2049 2.84558 2.30026C2.75022 2.39561 2.62874 2.46055 2.49648 2.48686C2.36422 2.51317 2.22712 2.49966 2.10254 2.44806C1.97795 2.39645 1.87147 2.30906 1.79655 2.19694C1.72163 2.08481 1.68164 1.95299 1.68164 1.81814C1.68164 1.63731 1.75347 1.46389 1.88134 1.33602C2.00921 1.20816 2.18263 1.13632 2.36346 1.13632Z" stroke="#242626" stroke-width="2" stroke-linecap="round" stroke-linejoin="round"/>
</svg>
